<mxfile host="app.diagrams.net" agent="Mozilla/5.0 (X11; Linux x86_64) AppleWebKit/537.36 (KHTML, like Gecko) Chrome/139.0.0.0 Safari/537.36" version="28.1.0">
  <diagram name="Page-1" id="znHcje3DKfkRHLT4wHZQ">
    <mxGraphModel dx="2505" dy="945" grid="1" gridSize="10" guides="1" tooltips="1" connect="1" arrows="1" fold="1" page="1" pageScale="1" pageWidth="827" pageHeight="1169" math="0" shadow="0">
      <root>
        <mxCell id="0" />
        <mxCell id="1" parent="0" />
        <mxCell id="rc0CGv5wbwCEYE3q9T7a-1" style="edgeStyle=none;curved=1;rounded=0;orthogonalLoop=1;jettySize=auto;html=1;exitX=0.5;exitY=1;exitDx=0;exitDy=0;exitPerimeter=0;entryX=0.5;entryY=0;entryDx=0;entryDy=0;fontSize=12;startSize=8;endSize=8;" edge="1" parent="1" source="EEXT_OcG0ofNtdb7AnRa-1" target="EEXT_OcG0ofNtdb7AnRa-2">
          <mxGeometry relative="1" as="geometry" />
        </mxCell>
        <mxCell id="EEXT_OcG0ofNtdb7AnRa-1" value="Start" style="strokeWidth=2;html=1;shape=mxgraph.flowchart.start_1;whiteSpace=wrap;fillColor=#d5e8d4;strokeColor=#82b366;" parent="1" vertex="1">
          <mxGeometry x="-50" y="120" width="100" height="60" as="geometry" />
        </mxCell>
        <mxCell id="EEXT_OcG0ofNtdb7AnRa-2" value="READ DRS,DRB,PSS,PSB, IGN" style="shape=parallelogram;html=1;strokeWidth=2;perimeter=parallelogramPerimeter;whiteSpace=wrap;rounded=1;arcSize=12;size=0.23;fillColor=#fff2cc;strokeColor=#d6b656;" parent="1" vertex="1">
          <mxGeometry x="-130" y="210" width="260" height="60" as="geometry" />
        </mxCell>
        <mxCell id="rc0CGv5wbwCEYE3q9T7a-12" style="edgeStyle=none;curved=0;rounded=0;orthogonalLoop=1;jettySize=auto;html=1;fontSize=12;startSize=8;endSize=8;" edge="1" parent="1" source="EEXT_OcG0ofNtdb7AnRa-3">
          <mxGeometry relative="1" as="geometry">
            <mxPoint x="50" y="980" as="targetPoint" />
            <Array as="points">
              <mxPoint x="160" y="370" />
              <mxPoint x="160" y="980" />
            </Array>
          </mxGeometry>
        </mxCell>
        <mxCell id="EEXT_OcG0ofNtdb7AnRa-3" value="DOES IGN = 1" style="strokeWidth=2;html=1;shape=mxgraph.flowchart.decision;whiteSpace=wrap;fillColor=#e1d5e7;strokeColor=#9673a6;" parent="1" vertex="1">
          <mxGeometry x="-75" y="320" width="150" height="100" as="geometry" />
        </mxCell>
        <mxCell id="EEXT_OcG0ofNtdb7AnRa-4" value="DOES DRS*~DRB = 1" style="strokeWidth=2;html=1;shape=mxgraph.flowchart.decision;whiteSpace=wrap;fillColor=#e1d5e7;strokeColor=#9673a6;" parent="1" vertex="1">
          <mxGeometry x="-90" y="480" width="180" height="100" as="geometry" />
        </mxCell>
        <mxCell id="rc0CGv5wbwCEYE3q9T7a-15" style="edgeStyle=none;curved=1;rounded=0;orthogonalLoop=1;jettySize=auto;html=1;exitX=0.5;exitY=1;exitDx=0;exitDy=0;exitPerimeter=0;fontSize=12;startSize=8;endSize=8;" edge="1" parent="1">
          <mxGeometry relative="1" as="geometry">
            <mxPoint y="950" as="targetPoint" />
            <mxPoint y="740" as="sourcePoint" />
          </mxGeometry>
        </mxCell>
        <mxCell id="EEXT_OcG0ofNtdb7AnRa-6" style="edgeStyle=orthogonalEdgeStyle;rounded=0;orthogonalLoop=1;jettySize=auto;html=1;exitX=0.5;exitY=1;exitDx=0;exitDy=0;entryX=0.5;entryY=0;entryDx=0;entryDy=0;entryPerimeter=0;" parent="1" source="EEXT_OcG0ofNtdb7AnRa-2" target="EEXT_OcG0ofNtdb7AnRa-3" edge="1">
          <mxGeometry relative="1" as="geometry" />
        </mxCell>
        <mxCell id="EEXT_OcG0ofNtdb7AnRa-7" style="edgeStyle=orthogonalEdgeStyle;rounded=0;orthogonalLoop=1;jettySize=auto;html=1;exitX=0.5;exitY=1;exitDx=0;exitDy=0;exitPerimeter=0;entryX=0.5;entryY=0;entryDx=0;entryDy=0;entryPerimeter=0;" parent="1" source="EEXT_OcG0ofNtdb7AnRa-3" target="EEXT_OcG0ofNtdb7AnRa-4" edge="1">
          <mxGeometry relative="1" as="geometry" />
        </mxCell>
        <mxCell id="EEXT_OcG0ofNtdb7AnRa-8" style="edgeStyle=orthogonalEdgeStyle;rounded=0;orthogonalLoop=1;jettySize=auto;html=1;exitX=0.5;exitY=1;exitDx=0;exitDy=0;exitPerimeter=0;entryX=0.5;entryY=0;entryDx=0;entryDy=0;entryPerimeter=0;" parent="1" source="EEXT_OcG0ofNtdb7AnRa-4" edge="1">
          <mxGeometry relative="1" as="geometry">
            <mxPoint y="640" as="targetPoint" />
          </mxGeometry>
        </mxCell>
        <mxCell id="rc0CGv5wbwCEYE3q9T7a-5" style="edgeStyle=none;curved=1;rounded=0;orthogonalLoop=1;jettySize=auto;html=1;exitX=0.5;exitY=1;exitDx=0;exitDy=0;exitPerimeter=0;entryX=0.5;entryY=0;entryDx=0;entryDy=0;fontSize=12;startSize=8;endSize=8;" edge="1" parent="1" source="EEXT_OcG0ofNtdb7AnRa-9" target="rc0CGv5wbwCEYE3q9T7a-3">
          <mxGeometry relative="1" as="geometry" />
        </mxCell>
        <mxCell id="EEXT_OcG0ofNtdb7AnRa-9" value="" style="verticalLabelPosition=bottom;verticalAlign=top;html=1;shape=mxgraph.flowchart.on-page_reference;" parent="1" vertex="1">
          <mxGeometry x="-175" y="675" width="30" height="30" as="geometry" />
        </mxCell>
        <mxCell id="EEXT_OcG0ofNtdb7AnRa-11" style="edgeStyle=orthogonalEdgeStyle;rounded=0;orthogonalLoop=1;jettySize=auto;html=1;exitX=0;exitY=0.5;exitDx=0;exitDy=0;exitPerimeter=0;entryX=0.497;entryY=-0.06;entryDx=0;entryDy=0;entryPerimeter=0;" parent="1" source="EEXT_OcG0ofNtdb7AnRa-4" target="EEXT_OcG0ofNtdb7AnRa-9" edge="1">
          <mxGeometry relative="1" as="geometry" />
        </mxCell>
        <mxCell id="rc0CGv5wbwCEYE3q9T7a-3" value="Trigger Alarm" style="rounded=1;whiteSpace=wrap;html=1;absoluteArcSize=1;arcSize=14;strokeWidth=2;fillColor=#f8cecc;strokeColor=#b85450;" vertex="1" parent="1">
          <mxGeometry x="-210" y="780" width="100" height="100" as="geometry" />
        </mxCell>
        <mxCell id="rc0CGv5wbwCEYE3q9T7a-4" value="END" style="strokeWidth=2;html=1;shape=mxgraph.flowchart.terminator;whiteSpace=wrap;fillColor=#d5e8d4;strokeColor=#82b366;" vertex="1" parent="1">
          <mxGeometry x="-50" y="950" width="100" height="60" as="geometry" />
        </mxCell>
        <mxCell id="rc0CGv5wbwCEYE3q9T7a-10" style="edgeStyle=none;curved=0;rounded=0;orthogonalLoop=1;jettySize=auto;html=1;entryX=0;entryY=0.5;entryDx=0;entryDy=0;entryPerimeter=0;fontSize=12;startSize=8;endSize=8;" edge="1" parent="1" source="rc0CGv5wbwCEYE3q9T7a-3" target="rc0CGv5wbwCEYE3q9T7a-4">
          <mxGeometry relative="1" as="geometry">
            <Array as="points">
              <mxPoint x="-160" y="980" />
            </Array>
          </mxGeometry>
        </mxCell>
        <mxCell id="rc0CGv5wbwCEYE3q9T7a-11" style="edgeStyle=none;curved=0;rounded=0;orthogonalLoop=1;jettySize=auto;html=1;exitX=1;exitY=0.5;exitDx=0;exitDy=0;exitPerimeter=0;entryX=1;entryY=0.5;entryDx=0;entryDy=0;entryPerimeter=0;fontSize=12;startSize=8;endSize=8;strokeColor=none;" edge="1" parent="1">
          <mxGeometry relative="1" as="geometry">
            <mxPoint x="-80" y="690" as="sourcePoint" />
            <mxPoint x="-80" y="1300" as="targetPoint" />
            <Array as="points">
              <mxPoint x="-10" y="690" />
              <mxPoint x="-10" y="1300" />
            </Array>
          </mxGeometry>
        </mxCell>
        <mxCell id="rc0CGv5wbwCEYE3q9T7a-13" value="NO" style="text;html=1;align=center;verticalAlign=middle;resizable=0;points=[];autosize=1;strokeColor=none;fillColor=none;fontSize=16;" vertex="1" parent="1">
          <mxGeometry x="59" y="331" width="50" height="30" as="geometry" />
        </mxCell>
        <mxCell id="rc0CGv5wbwCEYE3q9T7a-14" value="NO" style="text;html=1;align=center;verticalAlign=middle;resizable=0;points=[];autosize=1;strokeColor=none;fillColor=none;fontSize=16;" vertex="1" parent="1">
          <mxGeometry y="585" width="50" height="30" as="geometry" />
        </mxCell>
        <mxCell id="rc0CGv5wbwCEYE3q9T7a-16" value="DOES PSS*~PSB = 1" style="strokeWidth=2;html=1;shape=mxgraph.flowchart.decision;whiteSpace=wrap;fillColor=#e1d5e7;strokeColor=#9673a6;" vertex="1" parent="1">
          <mxGeometry x="-90" y="640" width="180" height="100" as="geometry" />
        </mxCell>
        <mxCell id="rc0CGv5wbwCEYE3q9T7a-18" style="edgeStyle=none;curved=1;rounded=0;orthogonalLoop=1;jettySize=auto;html=1;entryX=1;entryY=0.5;entryDx=0;entryDy=0;entryPerimeter=0;fontSize=12;startSize=8;endSize=8;" edge="1" parent="1" source="rc0CGv5wbwCEYE3q9T7a-16" target="EEXT_OcG0ofNtdb7AnRa-9">
          <mxGeometry relative="1" as="geometry" />
        </mxCell>
        <mxCell id="rc0CGv5wbwCEYE3q9T7a-19" value="NO" style="text;html=1;align=center;verticalAlign=middle;resizable=0;points=[];autosize=1;strokeColor=none;fillColor=none;fontSize=16;" vertex="1" parent="1">
          <mxGeometry y="740" width="50" height="30" as="geometry" />
        </mxCell>
      </root>
    </mxGraphModel>
  </diagram>
</mxfile>
